#!OML:ASF F:\VICON\USERDATA\INSTALL\rory3\rory3.ASF
:FULLY-SPECIFIED
:DEGREES
91
root -3.19491 16.2473 42.398 -165.365 -6.2576 -175.068
lowerback -10.5915 2.78457 4.92667
upperback -4.75381 2.66701 1.51353
thorax 1.14004 1.05546 -0.893384
lowerneck -13.2661 -4.27432 -9.65457
upperneck 33.0806 -8.89663 6.29976
head 14.2434 -5.24836 2.53491
rclavicle -2.71155e-015 3.97569e-015
rhumerus -26.9695 -1.50652 -77.2124
rradius 25.3297
rwrist 12.3891
rhand -16.9028 -57.9587
rfingers 7.12502
rthumb 9.32912 -87.7323
lclavicle -2.71155e-015 3.97569e-015
lhumerus -41.8101 4.60316 79.3826
lradius 31.804
lwrist 10.5365
lhand -32.0789 -30.4455
lfingers 7.12502
lthumb -5.32493 -0.532354
rfemur -34.1772 6.1843 24.7808
rtibia 48.7502
rfoot -24.7299 -16.8821
rtoes -5.41768
lfemur -32.4158 -7.4011 -17.3003
ltibia 47.4335
lfoot -29.957 14.0629
ltoes 10.7482
92
root -3.21582 16.2325 42.3926 -165.412 -6.09601 -175.148
lowerback -9.97153 2.76811 4.88883
upperback -4.4057 2.7377 1.49794
thorax 1.16535 1.1228 -0.896395
lowerneck -14.7089 -4.53665 -9.6205
upperneck 33.2327 -8.98076 6.19918
head 14.6437 -5.2018 2.44252
rclavicle 1.56791e-014 1.78906e-014
rhumerus -25.3386 -2.01109 -76.3898
rradius 25.1589
rwrist 13.1089
rhand -17.9499 -56.429
rfingers 7.12502
rthumb 8.31869 -86.2452
lclavicle 1.56791e-014 1.78906e-014
lhumerus -41.489 5.18987 78.6299
lradius 31.7029
lwrist 10.7311
lhand -33.5006 -29.2532
lfingers 7.12502
lthumb -6.69746 0.620869
rfemur -34.788 6.11738 24.6258
rtibia 49.9008
rfoot -24.4796 -16.7754
rtoes -6.56052
lfemur -32.4137 -7.04595 -17.5549
ltibia 47.5959
lfoot -29.9422 13.9486
ltoes 10.2586
93
root -3.23845 16.2162 42.3865 -165.405 -6.08189 -175.302
lowerback -9.78435 3.31776 5.06283
upperback -5.22909 3.43369 0.945787
thorax 0.285926 1.40092 -1.51307
lowerneck -11.2318 -4.51673 -9.34026
upperneck 32.4388 -9.7632 6.70409
head 13.6055 -5.62753 2.5483
rclavicle 1.38982e-014 5.1684e-015
rhumerus -26.9773 -3.46453 -75.3992
rradius 25.4983
rwrist 13.6351
rhand -18.7846 -55.4948
rfingers 7.12502
rthumb 7.5131 -85.3414
lclavicle 1.38982e-014 5.1684e-015
lhumerus -43.507 3.38917 77.8194
lradius 31.8671
lwrist 11.3008
lhand -34.0029 -28.7262
lfingers 7.12502
lthumb -7.18235 1.13192
rfemur -35.5574 5.85369 24.4255
rtibia 51.2248
rfoot -24.0929 -16.6695
rtoes -8.02328
lfemur -32.4449 -6.73686 -17.8612
ltibia 47.7123
lfoot -29.943 13.6939
ltoes 10.2341
94
root -3.26185 16.1988 42.3755 -165.428 -6.12779 -175.654
lowerback -9.10414 3.0021 4.72366
upperback -4.88079 3.13554 1.05528
thorax 0.233582 1.29136 -1.265
lowerneck -13.1635 -4.6809 -9.50852
upperneck 32.9601 -9.60552 6.44399
head 14.2455 -5.51064 2.44731
rclavicle -5.14231e-014 -1.2921e-014
rhumerus -25.1262 -3.0424 -74.7313
rradius 25.494
rwrist 13.6044
rhand -19.0619 -56.0927
rfingers 7.12502
rthumb 7.24537 -85.9487
lclavicle -5.14231e-014 -1.2921e-014
lhumerus -43.4098 4.64187 76.9045
lradius 31.8036
lwrist 11.3529
lhand -33.8676 -28.7578
lfingers 7.12502
lthumb -7.0518 1.10474
rfemur -36.3721 5.38464 24.0529
rtibia 52.7525
rfoot -23.2127 -16.8314
rtoes -11.2009
lfemur -32.3661 -6.7153 -18.3642
ltibia 47.8135
lfoot -30.1292 13.5013
ltoes 10.5751
95
root -3.28296 16.1837 42.3618 -165.525 -6.02955 -176
lowerback -8.6175 3.14559 4.55094
upperback -5.25964 3.36434 0.799445
thorax -0.407683 1.37929 -1.44177
lowerneck -11.62 -4.67465 -9.45635
upperneck 32.699 -9.91085 6.50902
head 13.8174 -5.71895 2.45251
rclavicle -3.11533e-014 3.97569e-015
rhumerus -25.3906 -3.27631 -73.9462
rradius 25.8642
rwrist 13.5386
rhand -19.3832 -57.0864
rfingers 7.12502
rthumb 6.9352 -86.9528
lclavicle -3.11533e-014 3.97569e-015
lhumerus -44.7119 4.3706 75.8621
lradius 31.7766
lwrist 11.4208
lhand -33.4372 -29.3757
lfingers 7.12502
lthumb -6.63625 0.500283
rfemur -37.1778 5.1059 23.6431
rtibia 54.4141
rfoot -22.7999 -16.6788
rtoes -12.858
lfemur -32.1522 -6.78416 -18.8777
ltibia 47.8874
lfoot -30.2979 13.5507
ltoes 10.8206
96
root -3.30008 16.1619 42.3516 -165.497 -5.80619 -176.249
lowerback -7.88532 2.75596 4.10621
upperback -4.44497 2.99664 1.10753
thorax -0.0251768 1.27203 -0.922886
lowerneck -15.2546 -4.98157 -9.65943
upperneck 33.495 -9.57611 6.06199
head 14.9515 -5.45551 2.26667
rclavicle -6.09523e-014 -1.98785e-015
rhumerus -22.0999 -2.60001 -73.3604
rradius 25.7061
rwrist 13.3405
rhand -19.878 -57.671
rfingers 7.12502
rthumb 6.45761 -87.5526
lclavicle -6.09523e-014 -1.98785e-015
lhumerus -43.7122 6.74295 74.765
lradius 31.3354
lwrist 11.0147
lhand -32.4699 -31.0041
lfingers 7.12502
lthumb -5.70239 -1.10087
rfemur -38.2452 5.05021 23.2889
rtibia 56.1726
rfoot -21.568 -16.6826
rtoes -15.6162
lfemur -32.1232 -6.6834 -19.2829
ltibia 47.971
lfoot -30.4066 13.5814
ltoes 11.0373
97
root -3.31665 16.1472 42.3398 -165.363 -5.61538 -176.439
lowerback -7.61217 2.77293 3.96309
upperback -4.63096 3.03863 1.06645
thorax -0.370936 1.28236 -0.897856
lowerneck -14.6238 -4.86025 -9.8708
upperneck 33.3869 -9.52375 6.27441
head 14.7766 -5.47028 2.41611
rclavicle -2.7805e-014 -1.88845e-014
rhumerus -21.5163 -2.52548 -72.623
rradius 25.9719
rwrist 13.1934
rhand -20.2827 -57.7515
rfingers 7.12502
rthumb 6.0669 -87.6446
lclavicle -2.7805e-014 -1.88845e-014
lhumerus -44.7497 7.19447 73.6326
lradius 31.2627
lwrist 11.0111
lhand -30.4724 -25.2587
lfingers 7.12502
lthumb -3.77361 4.68764
rfemur -39.4516 5.05568 22.9821
rtibia 57.9057
rfoot -20.4226 -16.6237
rtoes -17.2798
lfemur -32.2075 -6.41538 -19.606
ltibia 48.0215
lfoot -30.5637 13.3887
ltoes 11.5342
98
root -3.33659 16.1352 42.3247 -165.331 -5.50796 -176.64
lowerback -7.3267 3.17012 4.0496
upperback -5.28011 3.5477 0.593979
thorax -1.14397 1.48516 -1.42236
lowerneck -11.9432 -4.82103 -9.59253
upperneck 32.7336 -10.1137 6.67552
head 13.9468 -5.78276 2.49872
rclavicle -8.22782e-015 1.15295e-014
rhumerus -22.5712 -3.47946 -71.8339
rradius 26.6343
rwrist 13.2181
rhand -20.5011 -58.0267
rfingers 7.12502
rthumb 5.85599 -87.9258
lclavicle -8.22782e-015 1.15295e-014
lhumerus -46.3861 5.8493 72.5243
lradius 31.3457
lwrist 11.4039
lhand -29.4464 -25.8508
lfingers 7.12502
lthumb -2.78281 4.11082
rfemur -40.5429 5.02102 22.6676
rtibia 59.6365
rfoot -19.6039 -16.4298
rtoes -18.0259
lfemur -32.1593 -6.04698 -19.9684
ltibia 48.0615
lfoot -30.805 13.0692
ltoes 11.9385
99
root -3.35935 16.1248 42.3072 -165.338 -5.45422 -176.884
lowerback -6.79091 3.31311 4.04747
upperback -5.447 3.77448 0.320999
thorax -1.58302 1.58568 -1.71838
lowerneck -11.4489 -4.93797 -9.38496
upperneck 32.5807 -10.4375 6.74018
head 13.7963 -5.91438 2.44889
rclavicle 2.02667e-014 1.87852e-014
rhumerus -22.1957 -3.92437 -71.1285
rradius 27.0436
rwrist 13.1064
rhand -20.6483 -58.7676
rfingers 7.12502
rthumb 5.71394 -88.6706
lclavicle 2.02667e-014 1.87852e-014
lhumerus -47.0879 5.62934 71.3863
lradius 31.1845
lwrist 11.4662
lhand -28.7042 -28.5496
lfingers 7.12502
lthumb -2.06603 1.42018
rfemur -41.5689 4.84652 22.3411
rtibia 61.3379
rfoot -18.8095 -16.1351
rtoes -18.1613
lfemur -32.0377 -5.80931 -20.3867
ltibia 48.0584
lfoot -30.9664 12.9875
ltoes 11.5339
100
root -3.38094 16.1141 42.2882 -165.276 -5.42164 -177.098
lowerback -6.35417 3.52998 4.15423
upperback -5.88728 4.05746 0.0120815
thorax -2.23736 1.68442 -2.11491
lowerneck -9.92656 -4.84713 -9.27897
upperneck 32.2886 -10.6682 6.98934
head 13.3686 -6.06642 2.53839
rclavicle -3.26756e-014 1.09332e-015
rhumerus -22.4607 -4.13648 -70.3481
rradius 27.5016
rwrist 12.7502
rhand -20.7504 -59.0676
rfingers 7.12502
rthumb 5.61531 -88.9732
lclavicle -3.26756e-014 1.09332e-015
lhumerus -48.2953 4.9799 70.264
lradius 31.0324
lwrist 11.6934
lhand -29.4277 -30.2607
lfingers 7.12502
lthumb -2.7648 -0.298854
rfemur -42.7278 4.56542 22.1182
rtibia 63.0206
rfoot -17.5807 -16.3157
rtoes -18.6541
lfemur -31.9779 -5.70427 -20.7455
ltibia 48.0384
lfoot -31.0224 13.0205
ltoes 10.9816
101
root -3.40064 16.1091 42.2691 -165.224 -5.47387 -177.212
lowerback -5.62373 2.83901 3.74301
upperback -4.99855 3.28036 0.6015
thorax -1.82586 1.38566 -1.33428
lowerneck -14.0589 -4.95398 -9.55509
upperneck 33.1701 -9.85819 6.33787
head 14.5687 -5.58798 2.34256
rclavicle -2.86001e-014 -1.96797e-014
rhumerus -18.7399 -2.76681 -69.8926
rradius 27.5341
rwrist 12.2217
rhand -20.8074 -58.7086
rfingers 7.12502
rthumb 5.56029 -88.6157
lclavicle -2.86001e-014 -1.96797e-014
lhumerus -47.6679 8.30479 68.7503
lradius 30.5679
lwrist 10.5843
lhand -31.5201 -31.0698
lfingers 7.12502
lthumb -4.78536 -1.14384
rfemur -43.9417 4.2124 22.0811
rtibia 64.6658
rfoot -16.6415 -16.6162
rtoes -17.851
lfemur -31.9197 -5.66567 -20.9473
ltibia 48.0306
lfoot -31.1083 12.8933
ltoes 10.9988
